  0
SECTION
  2
HEADER
  9
$LUNITS
  70
1
  9
$AUNITS
  70
3
  0
ENDSEC
  0
SECTION
  2
TABLES
  0
ENDSEC
  0
SECTION
  2
BLOCKS
  0
ENDSEC
  0
SECTION
  2
ENTITIES
  0
LINE
  8
0
  10
0.000000000000000E+000 
  20
-2.300000000000000E-002 
  30
0.000000000000000E+000 
  11
2.330000000000000E-002 
  21
-2.300000000000000E-002 
  31
0.000000000000000E+000 
  0
LINE
  8
0
  10
2.330000000000000E-002 
  20
-2.300000000000000E-002 
  30
0.000000000000000E+000 
  11
2.330000000000000E-002 
  21
2.200000000000000E-002 
  31
0.000000000000000E+000 
  0
LINE
  8
0
  10
2.500000000000000E-003 
  20
2.200000000000000E-002 
  30
0.000000000000000E+000 
  11
2.330000000000000E-002 
  21
2.200000000000000E-002 
  31
0.000000000000000E+000 
  0
LINE
  8
0
  10
2.500000000000000E-003 
  20
2.200000000000000E-002 
  30
0.000000000000000E+000 
  11
2.500000000000000E-003 
  21
1.950000000000000E-002 
  31
0.000000000000000E+000 
  0
LINE
  8
0
  10
2.500000000000000E-003 
  20
1.950000000000000E-002 
  30
0.000000000000000E+000 
  11
2.000000000000000E-003 
  21
1.950000000000000E-002 
  31
0.000000000000000E+000 
  0
LINE
  8
0
  10
2.000000000000000E-003 
  20
1.950000000000000E-002 
  30
0.000000000000000E+000 
  11
2.000000000000000E-003 
  21
1.080000000000000E-002 
  31
0.000000000000000E+000 
  0
LINE
  8
0
  10
2.000000000000000E-003 
  20
1.080000000000000E-002 
  30
0.000000000000000E+000 
  11
1.550000000000000E-003 
  21
1.080000000000000E-002 
  31
0.000000000000000E+000 
  0
LINE
  8
0
  10
1.550000000000000E-003 
  20
1.080000000000000E-002 
  30
0.000000000000000E+000 
  11
1.550000000000000E-003 
  21
7.800000000000001E-003 
  31
0.000000000000000E+000 
  0
LINE
  8
0
  10
1.550000000000000E-003 
  20
7.800000000000001E-003 
  30
0.000000000000000E+000 
  11
5.800000000000000E-003 
  21
7.800000000000001E-003 
  31
0.000000000000000E+000 
  0
LINE
  8
0
  10
5.800000000000000E-003 
  20
7.800000000000001E-003 
  30
0.000000000000000E+000 
  11
5.800000000000000E-003 
  21
1.950000000000000E-002 
  31
0.000000000000000E+000 
  0
LINE
  8
0
  10
5.800000000000000E-003 
  20
1.950000000000000E-002 
  30
0.000000000000000E+000 
  11
2.130000000000000E-002 
  21
1.950000000000000E-002 
  31
0.000000000000000E+000 
  0
LINE
  8
0
  10
2.130000000000000E-002 
  20
1.950000000000000E-002 
  30
0.000000000000000E+000 
  11
2.130000000000000E-002 
  21
3.200000000000002E-003 
  31
0.000000000000000E+000 
  0
LINE
  8
0
  10
2.130000000000000E-002 
  20
3.200000000000002E-003 
  30
0.000000000000000E+000 
  11
2.130000000000000E-002 
  21
-1.000000000000001E-003 
  31
0.000000000000000E+000 
  0
LINE
  8
0
  10
2.130000000000000E-002 
  20
-1.000000000000001E-003 
  30
0.000000000000000E+000 
  11
2.130000000000000E-002 
  21
-2.100000000000000E-002 
  31
0.000000000000000E+000 
  0
LINE
  8
0
  10
2.130000000000000E-002 
  20
-2.100000000000000E-002 
  30
0.000000000000000E+000 
  11
6.000000000000000E-003 
  21
-2.100000000000000E-002 
  31
0.000000000000000E+000 
  0
LINE
  8
0
  10
6.000000000000000E-003 
  20
-2.100000000000000E-002 
  30
0.000000000000000E+000 
  11
6.000000000000000E-003 
  21
-4.999999999999998E-003 
  31
0.000000000000000E+000 
  0
LINE
  8
0
  10
6.000000000000000E-003 
  20
-4.999999999999998E-003 
  30
0.000000000000000E+000 
  11
0.000000000000000E+000 
  21
-4.999999999999998E-003 
  31
0.000000000000000E+000 
  0
LINE
  8
0
  10
0.000000000000000E+000 
  20
-4.999999999999998E-003 
  30
0.000000000000000E+000 
  11
0.000000000000000E+000 
  21
-2.300000000000000E-002 
  31
0.000000000000000E+000 
  0
LINE
  8
0
  10
6.300000000000000E-003 
  20
3.200000000000002E-003 
  30
0.000000000000000E+000 
  11
2.130000000000000E-002 
  21
3.200000000000002E-003 
  31
0.000000000000000E+000 
  0
LINE
  8
0
  10
6.300000000000000E-003 
  20
3.200000000000002E-003 
  30
0.000000000000000E+000 
  11
6.300000000000000E-003 
  21
-1.000000000000001E-003 
  31
0.000000000000000E+000 
  0
LINE
  8
0
  10
6.300000000000000E-003 
  20
-1.000000000000001E-003 
  30
0.000000000000000E+000 
  11
2.130000000000000E-002 
  21
-1.000000000000001E-003 
  31
0.000000000000000E+000 
  0
LINE
  8
0
  10
1.250000000000000E-003 
  20
-4.599999999999999E-003 
  30
0.000000000000000E+000 
  11
5.800000000000000E-003 
  21
-4.599999999999999E-003 
  31
0.000000000000000E+000 
  0
LINE
  8
0
  10
5.800000000000000E-003 
  20
-4.599999999999999E-003 
  30
0.000000000000000E+000 
  11
5.800000000000000E-003 
  21
5.400000000000003E-003 
  31
0.000000000000000E+000 
  0
LINE
  8
0
  10
5.800000000000000E-003 
  20
5.400000000000003E-003 
  30
0.000000000000000E+000 
  11
1.250000000000000E-003 
  21
5.400000000000003E-003 
  31
0.000000000000000E+000 
  0
LINE
  8
0
  10
1.250000000000000E-003 
  20
5.400000000000003E-003 
  30
0.000000000000000E+000 
  11
1.250000000000000E-003 
  21
-4.599999999999999E-003 
  31
0.000000000000000E+000 
  0
LINE
  8
0
  10
7.000000000000000E-003 
  20
-2.020000000000000E-002 
  30
0.000000000000000E+000 
  11
1.940000000000000E-002 
  21
-2.020000000000000E-002 
  31
0.000000000000000E+000 
  0
LINE
  8
0
  10
1.940000000000000E-002 
  20
-2.020000000000000E-002 
  30
0.000000000000000E+000 
  11
1.940000000000000E-002 
  21
-1.800000000000000E-003 
  31
0.000000000000000E+000 
  0
LINE
  8
0
  10
1.940000000000000E-002 
  20
-1.800000000000000E-003 
  30
0.000000000000000E+000 
  11
7.000000000000000E-003 
  21
-1.800000000000000E-003 
  31
0.000000000000000E+000 
  0
LINE
  8
0
  10
7.000000000000000E-003 
  20
-1.800000000000000E-003 
  30
0.000000000000000E+000 
  11
7.000000000000000E-003 
  21
-2.020000000000000E-002 
  31
0.000000000000000E+000 
  0
LINE
  8
0
  10
7.000000000000000E-003 
  20
4.000000000000000E-003 
  30
0.000000000000000E+000 
  11
1.980000000000000E-002 
  21
4.000000000000000E-003 
  31
0.000000000000000E+000 
  0
LINE
  8
0
  10
1.980000000000000E-002 
  20
4.000000000000000E-003 
  30
0.000000000000000E+000 
  11
1.980000000000000E-002 
  21
1.840000000000000E-002 
  31
0.000000000000000E+000 
  0
LINE
  8
0
  10
1.980000000000000E-002 
  20
1.840000000000000E-002 
  30
0.000000000000000E+000 
  11
7.000000000000000E-003 
  21
1.840000000000000E-002 
  31
0.000000000000000E+000 
  0
LINE
  8
0
  10
7.000000000000000E-003 
  20
1.840000000000000E-002 
  30
0.000000000000000E+000 
  11
7.000000000000000E-003 
  21
4.000000000000000E-003 
  31
0.000000000000000E+000 
  0
POLYLINE
  8
0
  66
1
  10
0.000000000000000E+000 
  20
0.000000000000000E+000 
  30
0.000000000000000E+000 
  0
VERTEX
  8
0
  10
1.387778780781446E-017 
  20
-6.000000000000001E-002 
  30
0.000000000000000E+000 
  0
VERTEX
  8
0
  10
1.102497041935247E-002 
  20
-5.897838610247320E-002 
  30
0.000000000000000E+000 
  0
VERTEX
  8
0
  10
2.167449873869717E-002 
  20
-5.594833424174678E-002 
  30
0.000000000000000E+000 
  0
VERTEX
  8
0
  10
3.158592808692921E-002 
  20
-5.101302918752561E-002 
  30
0.000000000000000E+000 
  0
VERTEX
  8
0
  10
4.042173666516493E-002 
  20
-4.434053681420719E-002 
  30
0.000000000000000E+000 
  0
VERTEX
  8
0
  10
4.788103164542395E-002 
  20
-3.615808081978233E-002 
  30
0.000000000000000E+000 
  0
VERTEX
  8
0
  10
5.370979571378678E-002 
  20
-2.674430489624458E-002 
  30
0.000000000000000E+000 
  0
VERTEX
  8
0
  10
5.770953732433194E-002 
  20
-1.641978385398359E-002 
  30
0.000000000000000E+000 
  0
VERTEX
  8
0
  10
5.974405008986446E-002 
  20
-5.536106832402070E-003 
  30
0.000000000000000E+000 
  0
VERTEX
  8
0
  10
5.974405112651887E-002 
  20
5.536095645118647E-003 
  30
0.000000000000000E+000 
  0
VERTEX
  8
0
  10
5.770954039899315E-002 
  20
1.641977304766963E-002 
  30
0.000000000000000E+000 
  0
VERTEX
  8
0
  10
5.370980072175092E-002 
  20
2.674429483889611E-002 
  30
0.000000000000000E+000 
  0
VERTEX
  8
0
  10
4.788103841615080E-002 
  20
3.615807185389026E-002 
  30
0.000000000000000E+000 
  0
VERTEX
  8
0
  10
4.042174496808556E-002 
  20
4.434052924509417E-002 
  30
0.000000000000000E+000 
  0
VERTEX
  8
0
  10
3.158593763929763E-002 
  20
5.101302327294868E-002 
  30
0.000000000000000E+000 
  0
VERTEX
  8
0
  10
2.167450921521898E-002 
  20
5.594833018311975E-002 
  30
0.000000000000000E+000 
  0
VERTEX
  8
0
  10
1.102498146326234E-002 
  20
5.897838403800771E-002 
  30
0.000000000000000E+000 
  0
VERTEX
  8
0
  10
1.123521086235368E-008 
  20
5.999999999999895E-002 
  30
0.000000000000000E+000 
  0
SEQEND
  0
LINE
  8
0
  10
4.898587196589413E-018 
  20
-8.000000000000000E-002 
  30
0.000000000000000E+000 
  11
3.673940397442059E-018 
  21
-6.000000000000000E-002 
  31
0.000000000000000E+000 
  0
LINE
  8
0
  10
4.898587196589413E-018 
  20
8.000000000000000E-002 
  30
0.000000000000000E+000 
  11
3.673940397442059E-018 
  21
6.000000000000000E-002 
  31
0.000000000000000E+000 
  0
POLYLINE
  8
0
  66
1
  10
0.000000000000000E+000 
  20
0.000000000000000E+000 
  30
0.000000000000000E+000 
  0
VERTEX
  8
0
  10
6.938893903907228E-018 
  20
-8.000000000000002E-002 
  30
0.000000000000000E+000 
  0
VERTEX
  8
0
  10
1.469996055913662E-002 
  20
-7.863784813663091E-002 
  30
0.000000000000000E+000 
  0
VERTEX
  8
0
  10
2.889933165159620E-002 
  20
-7.459777898899569E-002 
  30
0.000000000000000E+000 
  0
VERTEX
  8
0
  10
4.211457078257226E-002 
  20
-6.801737225003412E-002 
  30
0.000000000000000E+000 
  0
VERTEX
  8
0
  10
5.389564888688656E-002 
  20
-5.912071575227624E-002 
  30
0.000000000000000E+000 
  0
VERTEX
  8
0
  10
6.384137552723190E-002 
  20
-4.821077442637643E-002 
  30
0.000000000000000E+000 
  0
VERTEX
  8
0
  10
7.161306095171570E-002 
  20
-3.565907319499276E-002 
  30
0.000000000000000E+000 
  0
VERTEX
  8
0
  10
7.694604976577590E-002 
  20
-2.189304513864477E-002 
  30
0.000000000000000E+000 
  0
VERTEX
  8
0
  10
7.965873345315259E-002 
  20
-7.381475776536084E-003 
  30
0.000000000000000E+000 
  0
VERTEX
  8
0
  10
7.965873483535849E-002 
  20
7.381460860158208E-003 
  30
0.000000000000000E+000 
  0
VERTEX
  8
0
  10
7.694605386532417E-002 
  20
2.189303073022619E-002 
  30
0.000000000000000E+000 
  0
VERTEX
  8
0
  10
7.161306762900121E-002 
  20
3.565905978519482E-002 
  30
0.000000000000000E+000 
  0
VERTEX
  8
0
  10
6.384138455486772E-002 
  20
4.821076247185370E-002 
  30
0.000000000000000E+000 
  0
VERTEX
  8
0
  10
5.389565995744740E-002 
  20
5.912070566012556E-002 
  30
0.000000000000000E+000 
  0
VERTEX
  8
0
  10
4.211458351906349E-002 
  20
6.801736436393158E-002 
  30
0.000000000000000E+000 
  0
VERTEX
  8
0
  10
2.889934562029195E-002 
  20
7.459777357749299E-002 
  30
0.000000000000000E+000 
  0
VERTEX
  8
0
  10
1.469997528434976E-002 
  20
7.863784538401028E-002 
  30
0.000000000000000E+000 
  0
VERTEX
  8
0
  10
1.498028113361416E-008 
  20
7.999999999999860E-002 
  30
0.000000000000000E+000 
  0
SEQEND
  0
LINE
  8
0
  10
3.673940397442059E-018 
  20
-6.000000000000000E-002 
  30
0.000000000000000E+000 
  11
0.000000000000000E+000 
  21
-2.300000000000000E-002 
  31
0.000000000000000E+000 
  0
LINE
  8
0
  10
3.673940397442059E-018 
  20
6.000000000000000E-002 
  30
0.000000000000000E+000 
  11
0.000000000000000E+000 
  21
-4.999999999999998E-003 
  31
0.000000000000000E+000 
  0
LINE
  8
0
  10
0.000000000000000E+000 
  20
-2.300000000000000E-002 
  30
0.000000000000000E+000 
  11
2.330000000000000E-002 
  21
-2.300000000000000E-002 
  31
0.000000000000000E+000 
  0
LINE
  8
0
  10
2.330000000000000E-002 
  20
-2.300000000000000E-002 
  30
0.000000000000000E+000 
  11
2.330000000000000E-002 
  21
2.200000000000000E-002 
  31
0.000000000000000E+000 
  0
LINE
  8
0
  10
2.500000000000000E-003 
  20
2.200000000000000E-002 
  30
0.000000000000000E+000 
  11
2.330000000000000E-002 
  21
2.200000000000000E-002 
  31
0.000000000000000E+000 
  0
LINE
  8
0
  10
2.500000000000000E-003 
  20
2.200000000000000E-002 
  30
0.000000000000000E+000 
  11
2.500000000000000E-003 
  21
1.950000000000000E-002 
  31
0.000000000000000E+000 
  0
LINE
  8
0
  10
2.500000000000000E-003 
  20
1.950000000000000E-002 
  30
0.000000000000000E+000 
  11
2.000000000000000E-003 
  21
1.950000000000000E-002 
  31
0.000000000000000E+000 
  0
LINE
  8
0
  10
2.000000000000000E-003 
  20
1.950000000000000E-002 
  30
0.000000000000000E+000 
  11
2.000000000000000E-003 
  21
1.080000000000000E-002 
  31
0.000000000000000E+000 
  0
LINE
  8
0
  10
2.000000000000000E-003 
  20
1.080000000000000E-002 
  30
0.000000000000000E+000 
  11
1.550000000000000E-003 
  21
1.080000000000000E-002 
  31
0.000000000000000E+000 
  0
LINE
  8
0
  10
1.550000000000000E-003 
  20
1.080000000000000E-002 
  30
0.000000000000000E+000 
  11
1.550000000000000E-003 
  21
7.800000000000001E-003 
  31
0.000000000000000E+000 
  0
LINE
  8
0
  10
1.550000000000000E-003 
  20
7.800000000000001E-003 
  30
0.000000000000000E+000 
  11
5.800000000000000E-003 
  21
7.800000000000001E-003 
  31
0.000000000000000E+000 
  0
LINE
  8
0
  10
5.800000000000000E-003 
  20
7.800000000000001E-003 
  30
0.000000000000000E+000 
  11
5.800000000000000E-003 
  21
1.950000000000000E-002 
  31
0.000000000000000E+000 
  0
LINE
  8
0
  10
5.800000000000000E-003 
  20
1.950000000000000E-002 
  30
0.000000000000000E+000 
  11
2.130000000000000E-002 
  21
1.950000000000000E-002 
  31
0.000000000000000E+000 
  0
LINE
  8
0
  10
2.130000000000000E-002 
  20
1.950000000000000E-002 
  30
0.000000000000000E+000 
  11
2.130000000000000E-002 
  21
3.200000000000002E-003 
  31
0.000000000000000E+000 
  0
LINE
  8
0
  10
2.130000000000000E-002 
  20
-1.000000000000001E-003 
  30
0.000000000000000E+000 
  11
2.130000000000000E-002 
  21
-2.100000000000000E-002 
  31
0.000000000000000E+000 
  0
LINE
  8
0
  10
2.130000000000000E-002 
  20
-2.100000000000000E-002 
  30
0.000000000000000E+000 
  11
6.000000000000000E-003 
  21
-2.100000000000000E-002 
  31
0.000000000000000E+000 
  0
LINE
  8
0
  10
6.000000000000000E-003 
  20
-2.100000000000000E-002 
  30
0.000000000000000E+000 
  11
6.000000000000000E-003 
  21
-4.999999999999998E-003 
  31
0.000000000000000E+000 
  0
LINE
  8
0
  10
6.000000000000000E-003 
  20
-4.999999999999998E-003 
  30
0.000000000000000E+000 
  11
0.000000000000000E+000 
  21
-4.999999999999998E-003 
  31
0.000000000000000E+000 
  0
LINE
  8
0
  10
6.300000000000000E-003 
  20
3.200000000000002E-003 
  30
0.000000000000000E+000 
  11
2.130000000000000E-002 
  21
3.200000000000002E-003 
  31
0.000000000000000E+000 
  0
LINE
  8
0
  10
6.300000000000000E-003 
  20
3.200000000000002E-003 
  30
0.000000000000000E+000 
  11
6.300000000000000E-003 
  21
-1.000000000000001E-003 
  31
0.000000000000000E+000 
  0
LINE
  8
0
  10
6.300000000000000E-003 
  20
-1.000000000000001E-003 
  30
0.000000000000000E+000 
  11
2.130000000000000E-002 
  21
-1.000000000000001E-003 
  31
0.000000000000000E+000 
  0
LINE
  8
0
  10
7.000000000000000E-003 
  20
-2.020000000000000E-002 
  30
0.000000000000000E+000 
  11
1.940000000000000E-002 
  21
-2.020000000000000E-002 
  31
0.000000000000000E+000 
  0
LINE
  8
0
  10
1.940000000000000E-002 
  20
-2.020000000000000E-002 
  30
0.000000000000000E+000 
  11
1.940000000000000E-002 
  21
-1.800000000000000E-003 
  31
0.000000000000000E+000 
  0
LINE
  8
0
  10
1.940000000000000E-002 
  20
-1.800000000000000E-003 
  30
0.000000000000000E+000 
  11
7.000000000000000E-003 
  21
-1.800000000000000E-003 
  31
0.000000000000000E+000 
  0
LINE
  8
0
  10
7.000000000000000E-003 
  20
-1.800000000000000E-003 
  30
0.000000000000000E+000 
  11
7.000000000000000E-003 
  21
-2.020000000000000E-002 
  31
0.000000000000000E+000 
  0
LINE
  8
0
  10
7.000000000000000E-003 
  20
4.000000000000000E-003 
  30
0.000000000000000E+000 
  11
1.980000000000000E-002 
  21
4.000000000000000E-003 
  31
0.000000000000000E+000 
  0
LINE
  8
0
  10
1.980000000000000E-002 
  20
4.000000000000000E-003 
  30
0.000000000000000E+000 
  11
1.980000000000000E-002 
  21
1.840000000000000E-002 
  31
0.000000000000000E+000 
  0
LINE
  8
0
  10
1.980000000000000E-002 
  20
1.840000000000000E-002 
  30
0.000000000000000E+000 
  11
7.000000000000000E-003 
  21
1.840000000000000E-002 
  31
0.000000000000000E+000 
  0
LINE
  8
0
  10
7.000000000000000E-003 
  20
1.840000000000000E-002 
  30
0.000000000000000E+000 
  11
7.000000000000000E-003 
  21
4.000000000000000E-003 
  31
0.000000000000000E+000 
  0
POLYLINE
  8
0
  66
1
  10
0.000000000000000E+000 
  20
0.000000000000000E+000 
  30
0.000000000000000E+000 
  0
VERTEX
  8
0
  10
1.387778780781446E-017 
  20
-6.000000000000001E-002 
  30
0.000000000000000E+000 
  0
VERTEX
  8
0
  10
1.102497041935247E-002 
  20
-5.897838610247320E-002 
  30
0.000000000000000E+000 
  0
VERTEX
  8
0
  10
2.167449873869717E-002 
  20
-5.594833424174678E-002 
  30
0.000000000000000E+000 
  0
VERTEX
  8
0
  10
3.158592808692921E-002 
  20
-5.101302918752561E-002 
  30
0.000000000000000E+000 
  0
VERTEX
  8
0
  10
4.042173666516493E-002 
  20
-4.434053681420719E-002 
  30
0.000000000000000E+000 
  0
VERTEX
  8
0
  10
4.788103164542395E-002 
  20
-3.615808081978233E-002 
  30
0.000000000000000E+000 
  0
VERTEX
  8
0
  10
5.370979571378678E-002 
  20
-2.674430489624458E-002 
  30
0.000000000000000E+000 
  0
VERTEX
  8
0
  10
5.770953732433194E-002 
  20
-1.641978385398359E-002 
  30
0.000000000000000E+000 
  0
VERTEX
  8
0
  10
5.974405008986446E-002 
  20
-5.536106832402070E-003 
  30
0.000000000000000E+000 
  0
VERTEX
  8
0
  10
5.974405112651887E-002 
  20
5.536095645118647E-003 
  30
0.000000000000000E+000 
  0
VERTEX
  8
0
  10
5.770954039899315E-002 
  20
1.641977304766963E-002 
  30
0.000000000000000E+000 
  0
VERTEX
  8
0
  10
5.370980072175092E-002 
  20
2.674429483889611E-002 
  30
0.000000000000000E+000 
  0
VERTEX
  8
0
  10
4.788103841615080E-002 
  20
3.615807185389026E-002 
  30
0.000000000000000E+000 
  0
VERTEX
  8
0
  10
4.042174496808556E-002 
  20
4.434052924509417E-002 
  30
0.000000000000000E+000 
  0
VERTEX
  8
0
  10
3.158593763929763E-002 
  20
5.101302327294868E-002 
  30
0.000000000000000E+000 
  0
VERTEX
  8
0
  10
2.167450921521898E-002 
  20
5.594833018311975E-002 
  30
0.000000000000000E+000 
  0
VERTEX
  8
0
  10
1.102498146326234E-002 
  20
5.897838403800771E-002 
  30
0.000000000000000E+000 
  0
VERTEX
  8
0
  10
1.123521086235368E-008 
  20
5.999999999999895E-002 
  30
0.000000000000000E+000 
  0
SEQEND
  0
LINE
  8
0
  10
1.250000000000000E-003 
  20
-4.599999999999999E-003 
  30
0.000000000000000E+000 
  11
5.800000000000000E-003 
  21
-4.599999999999999E-003 
  31
0.000000000000000E+000 
  0
LINE
  8
0
  10
5.800000000000000E-003 
  20
-4.599999999999999E-003 
  30
0.000000000000000E+000 
  11
5.800000000000000E-003 
  21
5.400000000000003E-003 
  31
0.000000000000000E+000 
  0
LINE
  8
0
  10
5.800000000000000E-003 
  20
5.400000000000003E-003 
  30
0.000000000000000E+000 
  11
1.250000000000000E-003 
  21
5.400000000000003E-003 
  31
0.000000000000000E+000 
  0
LINE
  8
0
  10
1.250000000000000E-003 
  20
5.400000000000003E-003 
  30
0.000000000000000E+000 
  11
1.250000000000000E-003 
  21
-4.599999999999999E-003 
  31
0.000000000000000E+000 
  0
ENDSEC
  0
EOF
