  0
SECTION
  2
HEADER
  9
$LUNITS
  70
1
  9
$AUNITS
  70
3
  0
ENDSEC
  0
SECTION
  2
TABLES
  0
ENDSEC
  0
SECTION
  2
BLOCKS
  0
ENDSEC
  0
SECTION
  2
ENTITIES
  0
LINE
  8
0
  10
0.000000000000000E+000 
  20
-2.300000000000000E-002 
  30
0.000000000000000E+000 
  11
2.330000000000000E-002 
  21
-2.300000000000000E-002 
  31
0.000000000000000E+000 
  0
LINE
  8
0
  10
2.330000000000000E-002 
  20
-2.300000000000000E-002 
  30
0.000000000000000E+000 
  11
2.330000000000000E-002 
  21
2.200000000000000E-002 
  31
0.000000000000000E+000 
  0
LINE
  8
0
  10
2.500000000000000E-003 
  20
2.200000000000000E-002 
  30
0.000000000000000E+000 
  11
2.330000000000000E-002 
  21
2.200000000000000E-002 
  31
0.000000000000000E+000 
  0
LINE
  8
0
  10
2.500000000000000E-003 
  20
2.200000000000000E-002 
  30
0.000000000000000E+000 
  11
2.500000000000000E-003 
  21
1.950000000000000E-002 
  31
0.000000000000000E+000 
  0
LINE
  8
0
  10
2.500000000000000E-003 
  20
1.950000000000000E-002 
  30
0.000000000000000E+000 
  11
2.000000000000000E-003 
  21
1.950000000000000E-002 
  31
0.000000000000000E+000 
  0
LINE
  8
0
  10
2.000000000000000E-003 
  20
1.950000000000000E-002 
  30
0.000000000000000E+000 
  11
2.000000000000000E-003 
  21
1.080000000000000E-002 
  31
0.000000000000000E+000 
  0
LINE
  8
0
  10
2.000000000000000E-003 
  20
1.080000000000000E-002 
  30
0.000000000000000E+000 
  11
1.550000000000000E-003 
  21
1.080000000000000E-002 
  31
0.000000000000000E+000 
  0
LINE
  8
0
  10
1.550000000000000E-003 
  20
1.080000000000000E-002 
  30
0.000000000000000E+000 
  11
1.550000000000000E-003 
  21
7.800000000000001E-003 
  31
0.000000000000000E+000 
  0
LINE
  8
0
  10
1.550000000000000E-003 
  20
7.800000000000001E-003 
  30
0.000000000000000E+000 
  11
5.800000000000000E-003 
  21
7.800000000000001E-003 
  31
0.000000000000000E+000 
  0
LINE
  8
0
  10
5.800000000000000E-003 
  20
7.800000000000001E-003 
  30
0.000000000000000E+000 
  11
5.800000000000000E-003 
  21
1.950000000000000E-002 
  31
0.000000000000000E+000 
  0
LINE
  8
0
  10
5.800000000000000E-003 
  20
1.950000000000000E-002 
  30
0.000000000000000E+000 
  11
2.130000000000000E-002 
  21
1.950000000000000E-002 
  31
0.000000000000000E+000 
  0
LINE
  8
0
  10
2.130000000000000E-002 
  20
1.950000000000000E-002 
  30
0.000000000000000E+000 
  11
2.130000000000000E-002 
  21
3.200000000000002E-003 
  31
0.000000000000000E+000 
  0
LINE
  8
0
  10
2.130000000000000E-002 
  20
3.200000000000002E-003 
  30
0.000000000000000E+000 
  11
2.130000000000000E-002 
  21
-1.000000000000001E-003 
  31
0.000000000000000E+000 
  0
LINE
  8
0
  10
2.130000000000000E-002 
  20
-1.000000000000001E-003 
  30
0.000000000000000E+000 
  11
2.130000000000000E-002 
  21
-2.100000000000000E-002 
  31
0.000000000000000E+000 
  0
LINE
  8
0
  10
2.130000000000000E-002 
  20
-2.100000000000000E-002 
  30
0.000000000000000E+000 
  11
6.000000000000000E-003 
  21
-2.100000000000000E-002 
  31
0.000000000000000E+000 
  0
LINE
  8
0
  10
6.000000000000000E-003 
  20
-2.100000000000000E-002 
  30
0.000000000000000E+000 
  11
6.000000000000000E-003 
  21
-4.999999999999998E-003 
  31
0.000000000000000E+000 
  0
LINE
  8
0
  10
6.000000000000000E-003 
  20
-4.999999999999998E-003 
  30
0.000000000000000E+000 
  11
0.000000000000000E+000 
  21
-4.999999999999998E-003 
  31
0.000000000000000E+000 
  0
LINE
  8
0
  10
0.000000000000000E+000 
  20
-4.999999999999998E-003 
  30
0.000000000000000E+000 
  11
0.000000000000000E+000 
  21
-2.300000000000000E-002 
  31
0.000000000000000E+000 
  0
LINE
  8
0
  10
6.300000000000000E-003 
  20
3.200000000000002E-003 
  30
0.000000000000000E+000 
  11
2.130000000000000E-002 
  21
3.200000000000002E-003 
  31
0.000000000000000E+000 
  0
LINE
  8
0
  10
6.300000000000000E-003 
  20
3.200000000000002E-003 
  30
0.000000000000000E+000 
  11
6.300000000000000E-003 
  21
-1.000000000000001E-003 
  31
0.000000000000000E+000 
  0
LINE
  8
0
  10
6.300000000000000E-003 
  20
-1.000000000000001E-003 
  30
0.000000000000000E+000 
  11
2.130000000000000E-002 
  21
-1.000000000000001E-003 
  31
0.000000000000000E+000 
  0
LINE
  8
0
  10
1.250000000000000E-003 
  20
-4.699999999999999E-003 
  30
0.000000000000000E+000 
  11
5.800000000000000E-003 
  21
-4.699999999999999E-003 
  31
0.000000000000000E+000 
  0
LINE
  8
0
  10
5.800000000000000E-003 
  20
-4.699999999999999E-003 
  30
0.000000000000000E+000 
  11
5.800000000000000E-003 
  21
5.300000000000003E-003 
  31
0.000000000000000E+000 
  0
LINE
  8
0
  10
5.800000000000000E-003 
  20
5.300000000000003E-003 
  30
0.000000000000000E+000 
  11
1.250000000000000E-003 
  21
5.300000000000003E-003 
  31
0.000000000000000E+000 
  0
LINE
  8
0
  10
1.250000000000000E-003 
  20
5.300000000000003E-003 
  30
0.000000000000000E+000 
  11
1.250000000000000E-003 
  21
-4.699999999999999E-003 
  31
0.000000000000000E+000 
  0
LINE
  8
0
  10
7.000000000000000E-003 
  20
-2.020000000000000E-002 
  30
0.000000000000000E+000 
  11
1.940000000000000E-002 
  21
-2.020000000000000E-002 
  31
0.000000000000000E+000 
  0
LINE
  8
0
  10
1.940000000000000E-002 
  20
-2.020000000000000E-002 
  30
0.000000000000000E+000 
  11
1.940000000000000E-002 
  21
-1.800000000000000E-003 
  31
0.000000000000000E+000 
  0
LINE
  8
0
  10
1.940000000000000E-002 
  20
-1.800000000000000E-003 
  30
0.000000000000000E+000 
  11
7.000000000000000E-003 
  21
-1.800000000000000E-003 
  31
0.000000000000000E+000 
  0
LINE
  8
0
  10
7.000000000000000E-003 
  20
-1.800000000000000E-003 
  30
0.000000000000000E+000 
  11
7.000000000000000E-003 
  21
-2.020000000000000E-002 
  31
0.000000000000000E+000 
  0
LINE
  8
0
  10
7.000000000000000E-003 
  20
4.000000000000000E-003 
  30
0.000000000000000E+000 
  11
1.980000000000000E-002 
  21
4.000000000000000E-003 
  31
0.000000000000000E+000 
  0
LINE
  8
0
  10
1.980000000000000E-002 
  20
4.000000000000000E-003 
  30
0.000000000000000E+000 
  11
1.980000000000000E-002 
  21
1.840000000000000E-002 
  31
0.000000000000000E+000 
  0
LINE
  8
0
  10
1.980000000000000E-002 
  20
1.840000000000000E-002 
  30
0.000000000000000E+000 
  11
7.000000000000000E-003 
  21
1.840000000000000E-002 
  31
0.000000000000000E+000 
  0
LINE
  8
0
  10
7.000000000000000E-003 
  20
1.840000000000000E-002 
  30
0.000000000000000E+000 
  11
7.000000000000000E-003 
  21
4.000000000000000E-003 
  31
0.000000000000000E+000 
  0
ENDSEC
  0
EOF
