  0
SECTION
  2
HEADER
  9
$LUNITS
  70
1
  9
$AUNITS
  70
3
  0
ENDSEC
  0
SECTION
  2
TABLES
  0
ENDSEC
  0
SECTION
  2
BLOCKS
  0
ENDSEC
  0
SECTION
  2
ENTITIES
  0
POLYLINE
  8
0
  66
1
  10
0.000000000000000E+000 
  20
0.000000000000000E+000 
  30
0.000000000000000E+000 
  0
VERTEX
  8
0
  10
3.469446951953614E-018 
  20
-4.000000000000001E-002 
  30
0.000000000000000E+000 
  0
VERTEX
  8
0
  10
7.349980279568308E-003 
  20
-3.931892406831546E-002 
  30
0.000000000000000E+000 
  0
VERTEX
  8
0
  10
1.444966582579810E-002 
  20
-3.729888949449785E-002 
  30
0.000000000000000E+000 
  0
VERTEX
  8
0
  10
2.105728539128613E-002 
  20
-3.400868612501706E-002 
  30
0.000000000000000E+000 
  0
VERTEX
  8
0
  10
2.694782444344328E-002 
  20
-2.956035787613812E-002 
  30
0.000000000000000E+000 
  0
VERTEX
  8
0
  10
3.192068776361595E-002 
  20
-2.410538721318822E-002 
  30
0.000000000000000E+000 
  0
VERTEX
  8
0
  10
3.580653047585785E-002 
  20
-1.782953659749638E-002 
  30
0.000000000000000E+000 
  0
VERTEX
  8
0
  10
3.847302488288795E-002 
  20
-1.094652256932239E-002 
  30
0.000000000000000E+000 
  0
VERTEX
  8
0
  10
3.982936672657630E-002 
  20
-3.690737888268042E-003 
  30
0.000000000000000E+000 
  0
VERTEX
  8
0
  10
3.982936741767924E-002 
  20
3.690730430079104E-003 
  30
0.000000000000000E+000 
  0
VERTEX
  8
0
  10
3.847302693266209E-002 
  20
1.094651536511309E-002 
  30
0.000000000000000E+000 
  0
VERTEX
  8
0
  10
3.580653381450061E-002 
  20
1.782952989259741E-002 
  30
0.000000000000000E+000 
  0
VERTEX
  8
0
  10
3.192069227743386E-002 
  20
2.410538123592685E-002 
  30
0.000000000000000E+000 
  0
VERTEX
  8
0
  10
2.694782997872370E-002 
  20
2.956035283006278E-002 
  30
0.000000000000000E+000 
  0
VERTEX
  8
0
  10
2.105729175953175E-002 
  20
3.400868218196579E-002 
  30
0.000000000000000E+000 
  0
VERTEX
  8
0
  10
1.444967281014598E-002 
  20
3.729888678874650E-002 
  30
0.000000000000000E+000 
  0
VERTEX
  8
0
  10
7.349987642174882E-003 
  20
3.931892269200514E-002 
  30
0.000000000000000E+000 
  0
VERTEX
  8
0
  10
7.490140566807080E-009 
  20
3.999999999999930E-002 
  30
0.000000000000000E+000 
  0
SEQEND
  0
LINE
  8
0
  10
3.061616997868383E-018 
  20
-5.000000000000000E-002 
  30
0.000000000000000E+000 
  11
2.449293598294706E-018 
  21
-4.000000000000000E-002 
  31
0.000000000000000E+000 
  0
LINE
  8
0
  10
3.061616997868383E-018 
  20
5.000000000000000E-002 
  30
0.000000000000000E+000 
  11
2.449293598294706E-018 
  21
4.000000000000000E-002 
  31
0.000000000000000E+000 
  0
POLYLINE
  8
0
  66
1
  10
0.000000000000000E+000 
  20
0.000000000000000E+000 
  30
0.000000000000000E+000 
  0
VERTEX
  8
0
  10
6.938893903907228E-018 
  20
-5.000000000000000E-002 
  30
0.000000000000000E+000 
  0
VERTEX
  8
0
  10
9.754515526883015E-003 
  20
-4.903926413432198E-002 
  30
0.000000000000000E+000 
  0
VERTEX
  8
0
  10
1.913417053700643E-002 
  20
-4.619397707343194E-002 
  30
0.000000000000000E+000 
  0
VERTEX
  8
0
  10
2.777850970478500E-002 
  20
-4.157348191553320E-002 
  30
0.000000000000000E+000 
  0
VERTEX
  8
0
  10
3.535533740422447E-002 
  20
-3.535534071443021E-002 
  30
0.000000000000000E+000 
  0
VERTEX
  8
0
  10
4.157347801431513E-002 
  20
-2.777851554337018E-002 
  30
0.000000000000000E+000 
  0
VERTEX
  8
0
  10
4.619397483409370E-002 
  20
-1.913417594324663E-002 
  30
0.000000000000000E+000 
  0
VERTEX
  8
0
  10
4.903926310687760E-002 
  20
-9.754520692193628E-003 
  30
0.000000000000000E+000 
  0
VERTEX
  8
0
  10
4.999999999999979E-002 
  20
-4.681337852086020E-009 
  30
0.000000000000000E+000 
  0
VERTEX
  8
0
  10
4.903926584672808E-002 
  20
9.754506918031723E-003 
  30
0.000000000000000E+000 
  0
VERTEX
  8
0
  10
4.619398020850441E-002 
  20
1.913416296826969E-002 
  30
0.000000000000000E+000 
  0
VERTEX
  8
0
  10
4.157348581675047E-002 
  20
2.777850386619928E-002 
  30
0.000000000000000E+000 
  0
VERTEX
  8
0
  10
3.535534567973823E-002 
  20
3.535533243891528E-002 
  30
0.000000000000000E+000 
  0
VERTEX
  8
0
  10
2.777851943575997E-002 
  20
4.157347541350261E-002 
  30
0.000000000000000E+000 
  0
VERTEX
  8
0
  10
1.913418026823859E-002 
  20
4.619397304262265E-002 
  30
0.000000000000000E+000 
  0
VERTEX
  8
0
  10
9.754525283580770E-003 
  20
4.903926219359325E-002 
  30
0.000000000000000E+000 
  0
VERTEX
  8
0
  10
-3.469446951953614E-018 
  20
5.000000000000000E-002 
  30
0.000000000000000E+000 
  0
SEQEND
  0
LINE
  8
0
  10
2.650000000000000E-003 
  20
9.900000000000001E-003 
  30
0.000000000000000E+000 
  11
2.650000000000000E-003 
  21
7.700000000000000E-003 
  31
0.000000000000000E+000 
  0
LINE
  8
0
  10
4.735000000000001E-003 
  20
7.700000000000000E-003 
  30
0.000000000000000E+000 
  11
2.650000000000000E-003 
  21
7.700000000000000E-003 
  31
0.000000000000000E+000 
  0
LINE
  8
0
  10
4.735000000000001E-003 
  20
7.700000000000000E-003 
  30
0.000000000000000E+000 
  11
4.735000000000001E-003 
  21
8.300000000000000E-003 
  31
0.000000000000000E+000 
  0
LINE
  8
0
  10
4.735000000000001E-003 
  20
8.300000000000000E-003 
  30
0.000000000000000E+000 
  11
2.350000000000000E-002 
  21
8.300000000000000E-003 
  31
0.000000000000000E+000 
  0
LINE
  8
0
  10
2.350000000000000E-002 
  20
9.900000000000001E-003 
  30
0.000000000000000E+000 
  11
2.650000000000000E-003 
  21
9.900000000000001E-003 
  31
0.000000000000000E+000 
  0
LINE
  8
0
  10
2.350000000000000E-002 
  20
9.900000000000001E-003 
  30
0.000000000000000E+000 
  11
2.350000000000000E-002 
  21
1.100000000000000E-002 
  31
0.000000000000000E+000 
  0
LINE
  8
0
  10
2.350000000000000E-002 
  20
1.100000000000000E-002 
  30
0.000000000000000E+000 
  11
2.395000000000000E-002 
  21
1.100000000000000E-002 
  31
0.000000000000000E+000 
  0
LINE
  8
0
  10
2.395000000000000E-002 
  20
1.100000000000000E-002 
  30
0.000000000000000E+000 
  11
2.395000000000000E-002 
  21
-1.080000000000000E-002 
  31
0.000000000000000E+000 
  0
LINE
  8
0
  10
2.395000000000000E-002 
  20
-1.080000000000000E-002 
  30
0.000000000000000E+000 
  11
4.835000000000000E-003 
  21
-1.080000000000000E-002 
  31
0.000000000000000E+000 
  0
LINE
  8
0
  10
4.835000000000000E-003 
  20
-1.080000000000000E-002 
  30
0.000000000000000E+000 
  11
4.835000000000000E-003 
  21
2.699999999999999E-003 
  31
0.000000000000000E+000 
  0
LINE
  8
0
  10
4.835000000000000E-003 
  20
2.699999999999999E-003 
  30
0.000000000000000E+000 
  11
5.950000000000000E-003 
  21
2.699999999999999E-003 
  31
0.000000000000000E+000 
  0
LINE
  8
0
  10
5.950000000000000E-003 
  20
2.699999999999999E-003 
  30
0.000000000000000E+000 
  11
5.950000000000000E-003 
  21
1.500000000000000E-003 
  31
0.000000000000000E+000 
  0
LINE
  8
0
  10
5.950000000000000E-003 
  20
1.500000000000000E-003 
  30
0.000000000000000E+000 
  11
6.650000000000001E-003 
  21
1.500000000000000E-003 
  31
0.000000000000000E+000 
  0
LINE
  8
0
  10
6.650000000000001E-003 
  20
1.500000000000000E-003 
  30
0.000000000000000E+000 
  11
6.650000000000001E-003 
  21
-9.000000000000001E-003 
  31
0.000000000000000E+000 
  0
LINE
  8
0
  10
6.650000000000001E-003 
  20
-9.000000000000001E-003 
  30
0.000000000000000E+000 
  11
1.900000000000000E-002 
  21
-9.000000000000001E-003 
  31
0.000000000000000E+000 
  0
LINE
  8
0
  10
1.900000000000000E-002 
  20
-9.000000000000001E-003 
  30
0.000000000000000E+000 
  11
1.900000000000000E-002 
  21
-1.000000000000000E-002 
  31
0.000000000000000E+000 
  0
LINE
  8
0
  10
1.900000000000000E-002 
  20
-1.000000000000000E-002 
  30
0.000000000000000E+000 
  11
2.350000000000000E-002 
  21
-1.000000000000000E-002 
  31
0.000000000000000E+000 
  0
LINE
  8
0
  10
2.350000000000000E-002 
  20
-1.000000000000000E-002 
  30
0.000000000000000E+000 
  11
2.350000000000000E-002 
  21
8.300000000000000E-003 
  31
0.000000000000000E+000 
  0
LINE
  8
0
  10
2.400000000000000E-003 
  20
5.700000000000000E-003 
  30
0.000000000000000E+000 
  11
4.735000000000001E-003 
  21
5.700000000000000E-003 
  31
0.000000000000000E+000 
  0
LINE
  8
0
  10
4.735000000000001E-003 
  20
5.700000000000000E-003 
  30
0.000000000000000E+000 
  11
4.735000000000001E-003 
  21
-8.300000000000000E-003 
  31
0.000000000000000E+000 
  0
LINE
  8
0
  10
4.735000000000001E-003 
  20
-8.300000000000000E-003 
  30
0.000000000000000E+000 
  11
1.600000000000000E-003 
  21
-8.300000000000000E-003 
  31
0.000000000000000E+000 
  0
LINE
  8
0
  10
1.600000000000000E-003 
  20
-8.300000000000000E-003 
  30
0.000000000000000E+000 
  11
1.600000000000000E-003 
  21
5.999999999999998E-004 
  31
0.000000000000000E+000 
  0
LINE
  8
0
  10
1.600000000000000E-003 
  20
5.999999999999998E-004 
  30
0.000000000000000E+000 
  11
2.400000000000000E-003 
  21
5.999999999999998E-004 
  31
0.000000000000000E+000 
  0
LINE
  8
0
  10
2.400000000000000E-003 
  20
5.700000000000000E-003 
  30
0.000000000000000E+000 
  11
2.400000000000000E-003 
  21
5.999999999999998E-004 
  31
0.000000000000000E+000 
  0
LINE
  8
0
  10
2.449293598294706E-018 
  20
4.000000000000000E-002 
  30
0.000000000000000E+000 
  11
2.449293598294706E-018 
  21
-4.000000000000000E-002 
  31
0.000000000000000E+000 
  0
LINE
  8
0
  10
9.556500000000001E-003 
  20
6.850000000000000E-003 
  30
0.000000000000000E+000 
  11
9.556500000000001E-003 
  21
-7.849999999999999E-003 
  31
0.000000000000000E+000 
  0
LINE
  8
0
  10
9.556500000000001E-003 
  20
-7.849999999999999E-003 
  30
0.000000000000000E+000 
  11
2.124350000000000E-002 
  21
-7.849999999999999E-003 
  31
0.000000000000000E+000 
  0
LINE
  8
0
  10
2.124350000000000E-002 
  20
-7.849999999999999E-003 
  30
0.000000000000000E+000 
  11
2.124350000000000E-002 
  21
6.850000000000000E-003 
  31
0.000000000000000E+000 
  0
LINE
  8
0
  10
2.124350000000000E-002 
  20
6.850000000000000E-003 
  30
0.000000000000000E+000 
  11
9.556500000000001E-003 
  21
6.850000000000000E-003 
  31
0.000000000000000E+000 
  0
ENDSEC
  0
EOF
